<?xml version="1.0" encoding="utf-8"?>
<!-- Generator: Adobe Illustrator 16.0.0, SVG Export Plug-In . SVG Version: 6.00 Build 0)  -->
<!DOCTYPE svg PUBLIC "-//W3C//DTD SVG 1.1//EN" "http://www.w3.org/Graphics/SVG/1.1/DTD/svg11.dtd">
<svg version="1.1" id="Camada_1" xmlns="http://www.w3.org/2000/svg" xmlns:xlink="http://www.w3.org/1999/xlink" x="0px" y="0px"
	 width="49.617px" height="43.793px" viewBox="0 0 49.617 43.793" enable-background="new 0 0 49.617 43.793" xml:space="preserve">
<g>
	<path fill="#0078B5" d="M40.673,4.039C39.39,1.816,36.729,0,34.759,0h-8.244h-3.422h-8.244c-1.969,0-4.631,1.818-5.912,4.039
		L0.961,17.857c-1.281,2.221-1.281,5.855,0,8.078l7.976,13.82c1.281,2.219,3.943,4.037,5.912,4.037h8.244h3.422h8.244
		c1.971,0,4.631-1.816,5.914-4.037l7.98-13.822c1.285-2.221,1.285-5.855,0-8.074L40.673,4.039z"/>
	<g>
		<g>
			<defs>
				<rect id="SVGID_1_" x="16.338" y="18.997" width="3.725" height="11.193"/>
			</defs>
			<clipPath id="SVGID_2_">
				<use xlink:href="#SVGID_1_"  overflow="visible"/>
			</clipPath>
			
				<rect x="13.596" y="16.257" clip-path="url(#SVGID_2_)" fill-rule="evenodd" clip-rule="evenodd" fill="#FFFFFF" width="9.207" height="16.674"/>
		</g>
		<g>
			<defs>
				<path id="SVGID_3_" d="M20.309,15.534c-0.023-1.1-0.811-1.932-2.086-1.932s-2.107,0.832-2.107,1.932
					c0,1.074,0.809,1.934,2.059,1.934h0.025C19.498,17.468,20.309,16.608,20.309,15.534z"/>
			</defs>
			<clipPath id="SVGID_4_">
				<use xlink:href="#SVGID_3_"  overflow="visible"/>
			</clipPath>
			
				<rect x="13.375" y="10.858" clip-path="url(#SVGID_4_)" fill-rule="evenodd" clip-rule="evenodd" fill="#FFFFFF" width="9.67" height="9.35"/>
		</g>
		<g>
			<defs>
				<path id="SVGID_5_" d="M33.502,23.772c0-3.439-1.842-5.039-4.295-5.039c-1.977,0-2.859,1.088-3.357,1.85v-1.586h-3.725
					c0.049,1.051,0,11.193,0,11.193h3.725v-6.25c0-0.334,0.023-0.668,0.123-0.908c0.27-0.67,0.883-1.359,1.912-1.359
					c1.348,0,1.887,1.025,1.887,2.529v5.988h3.73V23.772z"/>
			</defs>
			<clipPath id="SVGID_6_">
				<use xlink:href="#SVGID_5_"  overflow="visible"/>
			</clipPath>
			
				<rect x="19.385" y="15.993" clip-path="url(#SVGID_6_)" fill-rule="evenodd" clip-rule="evenodd" fill="#FFFFFF" width="16.857" height="16.938"/>
		</g>
	</g>
</g>
</svg>
