<?xml version="1.0" encoding="utf-8"?>
<!-- Generator: Adobe Illustrator 16.0.0, SVG Export Plug-In . SVG Version: 6.00 Build 0)  -->
<!DOCTYPE svg PUBLIC "-//W3C//DTD SVG 1.1//EN" "http://www.w3.org/Graphics/SVG/1.1/DTD/svg11.dtd">
<svg version="1.1" id="Camada_1" xmlns="http://www.w3.org/2000/svg" xmlns:xlink="http://www.w3.org/1999/xlink" x="0px" y="0px"
	 width="49.617px" height="43.793px" viewBox="0 0 49.617 43.793" enable-background="new 0 0 49.617 43.793" xml:space="preserve">
<g>
	<g>
		<path fill="#37A7DF" d="M40.673,4.039C39.391,1.816,36.729,0,34.76,0h-8.245h-3.421h-8.246c-1.969,0-4.629,1.818-5.912,4.039
			L0.961,17.857c-1.281,2.221-1.281,5.855,0,8.078l7.975,13.82c1.283,2.219,3.943,4.037,5.912,4.037h8.246h3.421h8.245
			c1.969,0,4.631-1.816,5.913-4.037l7.981-13.822c1.283-2.221,1.283-5.855,0-8.074L40.673,4.039z"/>
	</g>
	<path fill="#FFFFFF" d="M36.208,14.825c-0.838,0.372-1.74,0.623-2.686,0.736c0.965-0.579,1.708-1.495,2.057-2.588
		c-0.903,0.535-1.904,0.927-2.97,1.136c-0.854-0.909-2.07-1.478-3.415-1.478c-2.584,0-4.678,2.095-4.678,4.678
		c0,0.367,0.041,0.724,0.121,1.065c-3.887-0.194-7.333-2.056-9.642-4.888c-0.402,0.691-0.633,1.495-0.633,2.353
		c0,1.622,0.825,3.055,2.081,3.894c-0.767-0.024-1.487-0.235-2.119-0.586v0.06c0,2.266,1.613,4.157,3.752,4.587
		c-0.392,0.105-0.807,0.164-1.233,0.164c-0.3,0-0.595-0.029-0.879-0.084c0.595,1.858,2.322,3.21,4.369,3.249
		c-1.6,1.254-3.617,2.002-5.81,2.002c-0.377,0-0.749-0.022-1.115-0.065c2.07,1.326,4.529,2.101,7.171,2.101
		c8.604,0,13.309-7.127,13.309-13.309c0-0.202-0.005-0.403-0.013-0.605C34.788,16.587,35.58,15.763,36.208,14.825z"/>
</g>
</svg>
