<?xml version="1.0" encoding="utf-8"?>
<!-- Generator: Adobe Illustrator 16.0.0, SVG Export Plug-In . SVG Version: 6.00 Build 0)  -->
<!DOCTYPE svg PUBLIC "-//W3C//DTD SVG 1.1//EN" "http://www.w3.org/Graphics/SVG/1.1/DTD/svg11.dtd">
<svg version="1.1" id="Camada_1" xmlns="http://www.w3.org/2000/svg" xmlns:xlink="http://www.w3.org/1999/xlink" x="0px" y="0px"
	 width="49.626px" height="43.793px" viewBox="0 0 49.626 43.793" enable-background="new 0 0 49.626 43.793" xml:space="preserve">
<g>
	<path fill="#3C5594" d="M40.678,4.039C39.395,1.816,36.731,0,34.762,0h-8.247h-3.421h-8.246c-1.969,0-4.629,1.818-5.912,4.039
		L0.961,17.857c-1.281,2.221-1.281,5.855,0,8.078l7.975,13.82c1.283,2.219,3.943,4.037,5.912,4.037h8.246h3.421h8.247
		c1.97,0,4.633-1.816,5.916-4.037l7.985-13.822c1.283-2.221,1.283-5.855,0-8.074L40.678,4.039z"/>
	<g>
		<defs>
			<path id="SVGID_1_" d="M26.923,35.596V21.875h3.791l0.5-4.726h-4.291l0.01-2.365c0-1.235,0.115-1.896,1.887-1.896h2.367V8.163
				h-3.787c-4.549,0-6.15,2.292-6.15,6.149v2.837h-2.837v4.729h2.837v13.718H26.923z"/>
		</defs>
		<clipPath id="SVGID_2_">
			<use xlink:href="#SVGID_1_"  overflow="visible"/>
		</clipPath>
		
			<rect x="14.21" y="3.959" clip-path="url(#SVGID_2_)" fill-rule="evenodd" clip-rule="evenodd" fill="#FFFFFF" width="21.207" height="35.839"/>
	</g>
</g>
</svg>
