<?xml version="1.0" encoding="utf-8"?>
<!-- Generator: Adobe Illustrator 16.0.0, SVG Export Plug-In . SVG Version: 6.00 Build 0)  -->
<!DOCTYPE svg PUBLIC "-//W3C//DTD SVG 1.1//EN" "http://www.w3.org/Graphics/SVG/1.1/DTD/svg11.dtd">
<svg version="1.1" id="Camada_1" xmlns="http://www.w3.org/2000/svg" xmlns:xlink="http://www.w3.org/1999/xlink" x="0px" y="0px"
	 width="49.626px" height="43.793px" viewBox="0 0 49.626 43.793" enable-background="new 0 0 49.626 43.793" xml:space="preserve">
<g>
	<path fill="#221E1C" d="M40.678,4.039C39.395,1.816,36.731,0,34.762,0h-8.247h-3.421h-8.246c-1.969,0-4.629,1.818-5.912,4.039
		L0.961,17.857c-1.281,2.221-1.281,5.855,0,8.078l7.975,13.82c1.283,2.219,3.943,4.037,5.912,4.037h8.246h3.421h8.247
		c1.97,0,4.633-1.816,5.916-4.037l7.985-13.822c1.283-2.221,1.283-5.855,0-8.074L40.678,4.039z"/>
	<path fill="#FFFFFF" d="M24.813,7.573c-8.111,0-14.687,6.575-14.687,14.689c0,6.486,4.207,11.989,10.044,13.934
		c0.735,0.134,1.003-0.321,1.003-0.709c0-0.349-0.012-1.271-0.02-2.499c-4.086,0.889-4.947-1.968-4.947-1.968
		c-0.668-1.696-1.632-2.146-1.632-2.146c-1.333-0.912,0.103-0.895,0.103-0.895c1.475,0.105,2.25,1.515,2.25,1.515
		c1.309,2.245,3.437,1.594,4.274,1.219c0.132-0.949,0.511-1.594,0.931-1.963c-3.262-0.369-6.689-1.632-6.689-7.259
		c0-1.601,0.572-2.913,1.511-3.939c-0.15-0.373-0.653-1.865,0.145-3.888c0,0,1.232-0.395,4.039,1.506
		c1.172-0.326,2.429-0.489,3.677-0.494c1.248,0.005,2.504,0.168,3.676,0.494c2.806-1.9,4.037-1.506,4.037-1.506
		c0.8,2.022,0.297,3.515,0.145,3.888c0.939,1.026,1.511,2.339,1.511,3.939c0,5.644-3.436,6.885-6.707,7.249
		c0.526,0.452,0.997,1.347,0.997,2.718c0,1.964-0.018,3.547-0.018,4.029c0,0.392,0.266,0.849,1.01,0.704
		c5.831-1.943,10.035-7.445,10.035-13.929C39.499,14.148,32.926,7.573,24.813,7.573"/>
</g>
</svg>
