<?xml version="1.0" encoding="utf-8"?>
<!-- Generator: Adobe Illustrator 16.0.0, SVG Export Plug-In . SVG Version: 6.00 Build 0)  -->
<!DOCTYPE svg PUBLIC "-//W3C//DTD SVG 1.1//EN" "http://www.w3.org/Graphics/SVG/1.1/DTD/svg11.dtd">
<svg version="1.1" id="Camada_1" xmlns="http://www.w3.org/2000/svg" xmlns:xlink="http://www.w3.org/1999/xlink" x="0px" y="0px"
	 width="43.324px" height="37.497px" viewBox="0 0 43.324 37.497" enable-background="new 0 0 43.324 37.497" xml:space="preserve">
<rect x="-212.145" y="-24.178" display="none" fill="#004169" width="272.22" height="78.918"/>
<g>
	<polygon fill="#E2E2E2" points="16.676,0.559 10.781,0.559 0.384,18.58 6.277,18.58 	"/>
	<polygon fill="#E2E2E2" points="27.033,0.533 32.928,0.533 43.324,18.552 37.429,18.552 	"/>
	<polygon fill="#C4C4C4" points="43.335,18.508 37.438,18.508 27.04,36.633 32.936,36.633 	"/>
	<polygon fill="#C4C4C4" points="0.401,18.562 6.299,18.562 16.695,36.608 10.8,36.608 	"/>
	<path fill="#FFFFFF" d="M27.188,0.559H16.694L6.296,18.58l10.398,18.024h10.493L37.582,18.58L27.188,0.559z M15.967,27.743
		l0.327-4.569l3.539,2.116L15.967,27.743z M20.402,24.569l-3.544-2.115l7.36-12.579c0.353-0.595,0.953-0.958,1.598-1.016
		c0.404-0.036,0.837,0.047,1.227,0.271c0.983,0.574,1.313,1.841,0.735,2.825L20.402,24.569z"/>
</g>
</svg>
