<?xml version="1.0" encoding="utf-8"?>
<!-- Generator: Adobe Illustrator 16.0.0, SVG Export Plug-In . SVG Version: 6.00 Build 0)  -->
<!DOCTYPE svg PUBLIC "-//W3C//DTD SVG 1.1//EN" "http://www.w3.org/Graphics/SVG/1.1/DTD/svg11.dtd">
<svg version="1.1" id="Camada_1" xmlns="http://www.w3.org/2000/svg" xmlns:xlink="http://www.w3.org/1999/xlink" x="0px" y="0px"
	 width="237.334px" height="39.667px" viewBox="0 0 237.334 39.667" enable-background="new 0 0 237.334 39.667"
	 xml:space="preserve">
<rect x="-19.394" y="-23.091" display="none" fill="#004169" width="272.22" height="78.918"/>
<g>
	<polygon fill="#E2E2E2" points="209.427,1.646 203.532,1.646 193.135,19.666 199.028,19.666 	"/>
	<polygon fill="#E2E2E2" points="219.784,1.619 225.679,1.619 236.075,19.639 230.18,19.639 	"/>
	<polygon fill="#C4C4C4" points="236.086,19.595 230.189,19.595 219.791,37.72 225.687,37.72 	"/>
	<polygon fill="#C4C4C4" points="193.152,19.648 199.05,19.648 209.446,37.694 203.551,37.694 	"/>
	<path fill="#FFFFFF" d="M219.938,1.646h-10.493l-10.398,18.021l10.398,18.024h10.493l10.395-18.024L219.938,1.646z M208.718,28.829
		l0.327-4.569l3.539,2.116L208.718,28.829z M213.153,25.655l-3.544-2.115l7.36-12.579c0.353-0.595,0.953-0.958,1.598-1.016
		c0.404-0.036,0.837,0.047,1.227,0.271c0.983,0.574,1.313,1.841,0.735,2.825L213.153,25.655z"/>
</g>
<g>
	<path fill="#FFFFFF" d="M4.836,12.274h-3.12l-0.16-0.56l6.88-7.68h0.32v5.08h5.2c0.106,0.453,0.16,0.96,0.16,1.52
		c0,0.294-0.014,0.574-0.04,0.84c-0.027,0.267-0.067,0.534-0.12,0.8h-5.2v9.36c0,1.12,0.046,2.014,0.14,2.68
		c0.094,0.667,0.254,1.181,0.48,1.54c0.227,0.36,0.533,0.601,0.92,0.721c0.387,0.119,0.873,0.18,1.46,0.18
		c0.453,0,0.88-0.033,1.28-0.101c0.399-0.065,0.76-0.14,1.08-0.22c0.186,0.534,0.3,1.08,0.34,1.641c0.04,0.56,0.06,1.054,0.06,1.479
		c-0.533,0.133-1.094,0.233-1.68,0.3c-0.587,0.066-1.214,0.101-1.88,0.101c-1.92,0-3.42-0.467-4.5-1.4
		c-1.08-0.933-1.62-2.479-1.62-4.64V12.274z"/>
	<path fill="#FFFFFF" d="M18.396,9.115c0.293-0.054,0.573-0.094,0.84-0.12s0.546-0.04,0.84-0.04c0.293,0,0.586,0.014,0.88,0.04
		c0.293,0.026,0.561,0.066,0.8,0.12c0.08,0.399,0.16,0.927,0.24,1.579c0.08,0.654,0.12,1.207,0.12,1.66
		c0.561-0.906,1.3-1.692,2.22-2.359s2.101-1,3.54-1c0.214,0,0.434,0.007,0.66,0.02c0.227,0.014,0.42,0.034,0.58,0.061
		c0.053,0.239,0.093,0.493,0.12,0.76c0.026,0.267,0.04,0.547,0.04,0.84c0,0.32-0.021,0.653-0.061,1c-0.039,0.347-0.086,0.68-0.14,1
		c-0.214-0.053-0.434-0.08-0.66-0.08s-0.406,0-0.54,0c-0.72,0-1.406,0.1-2.06,0.3c-0.654,0.2-1.24,0.554-1.76,1.061
		c-0.521,0.507-0.935,1.199-1.24,2.08c-0.307,0.88-0.46,2.014-0.46,3.399v10.2c-0.294,0.053-0.62,0.093-0.98,0.12
		c-0.359,0.026-0.687,0.04-0.979,0.04c-0.294,0-0.62-0.014-0.98-0.04c-0.359-0.027-0.7-0.067-1.02-0.12V9.115z"/>
	<path fill="#FFFFFF" d="M43.716,16.115c0-1.573-0.4-2.667-1.2-3.28s-1.96-0.92-3.479-0.92c-0.935,0-1.808,0.073-2.62,0.22
		c-0.814,0.146-1.607,0.34-2.38,0.58c-0.507-0.88-0.761-1.934-0.761-3.16c0.906-0.293,1.906-0.52,3-0.68s2.146-0.24,3.16-0.24
		c2.666,0,4.693,0.606,6.08,1.82s2.08,3.153,2.08,5.819v12.841c-0.934,0.213-2.066,0.434-3.4,0.659
		c-1.333,0.227-2.693,0.341-4.079,0.341c-1.308,0-2.487-0.12-3.54-0.36c-1.054-0.24-1.947-0.626-2.681-1.16
		c-0.733-0.533-1.3-1.213-1.7-2.04c-0.399-0.826-0.6-1.826-0.6-3c0-1.146,0.233-2.153,0.7-3.02c0.466-0.866,1.1-1.587,1.899-2.16
		c0.801-0.573,1.721-1,2.761-1.28s2.133-0.42,3.279-0.42c0.854,0,1.554,0.02,2.101,0.06c0.546,0.04,1.006,0.087,1.38,0.141V16.115z
		 M43.716,19.995c-0.4-0.054-0.907-0.106-1.521-0.16s-1.133-0.08-1.56-0.08c-1.653,0-2.914,0.307-3.78,0.92s-1.3,1.547-1.3,2.8
		c0,0.8,0.146,1.427,0.44,1.88c0.293,0.454,0.66,0.8,1.1,1.04c0.44,0.24,0.927,0.387,1.46,0.44s1.04,0.08,1.521,0.08
		c0.612,0,1.246-0.033,1.899-0.101c0.653-0.066,1.233-0.166,1.74-0.3V19.995z"/>
	<path fill="#FFFFFF" d="M67.236,26.075c0.213,0.373,0.4,0.84,0.561,1.399c0.159,0.561,0.253,1.134,0.279,1.72
		c-1.573,0.613-3.373,0.921-5.399,0.921c-3.414,0-5.987-0.967-7.721-2.9s-2.6-4.54-2.6-7.82c0-1.52,0.213-2.933,0.64-4.24
		c0.427-1.306,1.061-2.439,1.9-3.399s1.886-1.72,3.14-2.28c1.254-0.56,2.707-0.84,4.36-0.84c1.12,0,2.106,0.066,2.96,0.2
		s1.666,0.347,2.44,0.64c0,0.454-0.061,0.98-0.181,1.58s-0.287,1.127-0.5,1.58c-1.307-0.453-2.8-0.68-4.479-0.68
		c-2.054,0-3.587,0.68-4.601,2.04c-1.014,1.359-1.52,3.159-1.52,5.399c0,2.561,0.573,4.434,1.72,5.62s2.72,1.78,4.72,1.78
		c0.801,0,1.54-0.054,2.221-0.16C65.856,26.528,66.542,26.342,67.236,26.075z"/>
	<path fill="#FFFFFF" d="M75.036,20.354c0.053,2.24,0.633,3.88,1.74,4.92c1.105,1.04,2.739,1.561,4.899,1.561
		c1.894,0,3.693-0.333,5.4-1c0.213,0.399,0.386,0.887,0.52,1.46s0.214,1.14,0.24,1.7c-0.88,0.373-1.847,0.652-2.9,0.84
		c-1.054,0.187-2.22,0.28-3.5,0.28c-1.866,0-3.467-0.261-4.8-0.78c-1.334-0.521-2.434-1.253-3.3-2.2
		c-0.867-0.946-1.5-2.066-1.9-3.36c-0.399-1.293-0.6-2.713-0.6-4.26c0-1.52,0.193-2.939,0.58-4.26c0.386-1.32,0.979-2.467,1.78-3.44
		c0.8-0.973,1.806-1.746,3.02-2.319c1.213-0.573,2.646-0.86,4.3-0.86c1.413,0,2.653,0.24,3.721,0.72
		c1.065,0.48,1.96,1.141,2.68,1.98s1.267,1.84,1.64,3s0.561,2.42,0.561,3.78c0,0.373-0.014,0.767-0.04,1.18
		c-0.027,0.414-0.054,0.767-0.08,1.06H75.036z M85.196,17.395c0-0.746-0.101-1.46-0.301-2.14c-0.199-0.68-0.493-1.273-0.88-1.78
		c-0.387-0.506-0.88-0.913-1.479-1.22c-0.601-0.307-1.313-0.46-2.141-0.46c-1.626,0-2.873,0.493-3.739,1.479
		c-0.867,0.987-1.394,2.36-1.58,4.12H85.196z"/>
	<path fill="#FFFFFF" d="M94.316,9.115c0.293-0.054,0.573-0.094,0.84-0.12s0.546-0.04,0.84-0.04c0.293,0,0.586,0.014,0.88,0.04
		c0.293,0.026,0.561,0.066,0.8,0.12c0.08,0.399,0.16,0.927,0.24,1.579c0.08,0.654,0.12,1.207,0.12,1.66
		c0.561-0.906,1.3-1.692,2.22-2.359s2.101-1,3.54-1c0.214,0,0.434,0.007,0.66,0.02c0.227,0.014,0.42,0.034,0.58,0.061
		c0.053,0.239,0.093,0.493,0.12,0.76c0.026,0.267,0.04,0.547,0.04,0.84c0,0.32-0.021,0.653-0.061,1c-0.039,0.347-0.086,0.68-0.14,1
		c-0.214-0.053-0.434-0.08-0.66-0.08s-0.406,0-0.54,0c-0.72,0-1.406,0.1-2.06,0.3c-0.654,0.2-1.24,0.554-1.76,1.061
		c-0.521,0.507-0.935,1.199-1.24,2.08c-0.307,0.88-0.46,2.014-0.46,3.399v10.2c-0.294,0.053-0.62,0.093-0.98,0.12
		c-0.359,0.026-0.687,0.04-0.979,0.04c-0.294,0-0.62-0.014-0.98-0.04c-0.359-0.027-0.7-0.067-1.02-0.12V9.115z"/>
	<path fill="#FFFFFF" d="M109.156,0.314c0.293-0.053,0.62-0.093,0.979-0.12c0.36-0.025,0.687-0.04,0.98-0.04
		c0.293,0,0.626,0.015,1,0.04c0.373,0.027,0.706,0.067,1,0.12v11.28c0.479-0.8,1.227-1.493,2.24-2.08
		c1.013-0.586,2.239-0.88,3.68-0.88c1.227,0,2.361,0.2,3.4,0.6c1.041,0.4,1.934,1.021,2.68,1.86s1.326,1.907,1.74,3.2
		c0.414,1.294,0.621,2.82,0.621,4.58c0,3.52-0.994,6.273-2.98,8.26c-1.988,1.987-4.847,2.98-8.581,2.98
		c-1.174,0-2.38-0.114-3.62-0.341c-1.24-0.226-2.287-0.486-3.14-0.779V0.314z M113.116,26.314c0.479,0.16,0.993,0.274,1.54,0.34
		c0.546,0.067,1.113,0.101,1.7,0.101c0.986,0,1.899-0.153,2.739-0.46c0.841-0.307,1.566-0.773,2.18-1.4
		c0.613-0.626,1.1-1.426,1.461-2.399c0.359-0.974,0.539-2.127,0.539-3.46c0-2.214-0.387-3.934-1.16-5.16s-2.053-1.84-3.839-1.84
		c-0.614,0-1.221,0.1-1.82,0.3s-1.153,0.52-1.66,0.96c-0.507,0.439-0.913,1.026-1.22,1.76s-0.46,1.62-0.46,2.66V26.314z"/>
	<path fill="#FFFFFF" d="M132.715,0.314c0.293-0.053,0.621-0.093,0.98-0.12c0.359-0.025,0.686-0.04,0.98-0.04
		c0.293,0,0.619,0.015,0.979,0.04c0.361,0.027,0.688,0.067,0.98,0.12v23.12c0,0.747,0.066,1.334,0.201,1.76
		c0.133,0.428,0.313,0.754,0.539,0.98s0.494,0.374,0.801,0.44s0.633,0.1,0.979,0.1c0.24,0,0.514-0.014,0.82-0.04
		s0.566-0.066,0.781-0.12c0.24,0.934,0.359,1.947,0.359,3.04c-0.373,0.133-0.826,0.22-1.359,0.26
		c-0.535,0.04-1.027,0.061-1.48,0.061c-0.773,0-1.494-0.094-2.16-0.28s-1.254-0.493-1.76-0.92c-0.508-0.427-0.906-1-1.201-1.72
		c-0.293-0.721-0.439-1.613-0.439-2.681V0.314z"/>
	<path fill="#FFFFFF" d="M153.035,30.115c-1.6,0-3-0.274-4.199-0.82c-1.201-0.547-2.201-1.3-3-2.26
		c-0.801-0.96-1.395-2.094-1.781-3.4s-0.58-2.72-0.58-4.24c0-1.52,0.193-2.933,0.58-4.24c0.387-1.306,0.98-2.439,1.781-3.399
		c0.799-0.96,1.799-1.72,3-2.28c1.199-0.56,2.6-0.84,4.199-0.84s3,0.28,4.199,0.84c1.201,0.561,2.201,1.32,3,2.28
		c0.801,0.96,1.395,2.094,1.781,3.399c0.387,1.308,0.58,2.721,0.58,4.24c0,1.521-0.193,2.934-0.58,4.24s-0.98,2.44-1.781,3.4
		c-0.799,0.96-1.799,1.713-3,2.26C156.035,29.841,154.635,30.115,153.035,30.115z M153.035,26.955c1.84,0,3.199-0.667,4.08-2
		s1.32-3.187,1.32-5.561c0-2.373-0.439-4.22-1.32-5.54c-0.881-1.319-2.24-1.979-4.08-1.979s-3.193,0.66-4.061,1.979
		c-0.867,1.32-1.299,3.167-1.299,5.54c0,2.374,0.432,4.228,1.299,5.561S151.195,26.955,153.035,26.955z"/>
	<path fill="#FFFFFF" d="M178.596,26.995c2.373,0.054,4.092,0.56,5.16,1.52c1.064,0.96,1.6,2.28,1.6,3.96
		c0,1.094-0.281,2.073-0.84,2.94c-0.561,0.866-1.334,1.613-2.32,2.239c-0.986,0.627-2.154,1.106-3.5,1.44
		c-1.348,0.333-2.807,0.5-4.381,0.5c-2.746,0-4.84-0.427-6.279-1.28s-2.16-2.199-2.16-4.04c0-1.094,0.293-2.073,0.881-2.939
		c0.586-0.867,1.346-1.554,2.279-2.061c-0.533-0.346-0.98-0.779-1.34-1.3c-0.359-0.52-0.541-1.166-0.541-1.939
		c0-0.986,0.221-1.841,0.66-2.561c0.441-0.72,1.033-1.359,1.781-1.92c-0.881-0.613-1.588-1.406-2.121-2.38s-0.799-2.073-0.799-3.3
		c0-1.014,0.186-1.96,0.559-2.84c0.373-0.881,0.914-1.646,1.621-2.301c0.705-0.652,1.58-1.166,2.619-1.54
		c1.041-0.373,2.227-0.56,3.561-0.56c1.199,0,2.285,0.174,3.26,0.52c0.973,0.348,1.807,0.787,2.5,1.32
		c0.533-0.426,1.254-0.78,2.16-1.06c0.906-0.28,1.906-0.42,3-0.42c0.105,0.507,0.16,1.066,0.16,1.68c0,0.294-0.014,0.6-0.041,0.92
		c-0.025,0.32-0.066,0.64-0.119,0.96h-3.6c0.293,0.454,0.52,0.947,0.68,1.48s0.24,1.146,0.24,1.84c0,1.094-0.201,2.08-0.6,2.96
		c-0.4,0.88-0.967,1.634-1.701,2.26c-0.732,0.627-1.607,1.106-2.619,1.44c-1.014,0.333-2.121,0.5-3.32,0.5
		c-1.094,0-2.08-0.12-2.961-0.36c-0.373,0.214-0.738,0.54-1.1,0.979c-0.359,0.44-0.539,0.914-0.539,1.421
		c0,0.479,0.172,0.899,0.52,1.26c0.346,0.359,1.119,0.554,2.32,0.58L178.596,26.995z M173.195,30.154
		c-1.201-0.026-2.1,0.294-2.701,0.961c-0.6,0.666-0.898,1.466-0.898,2.399c0,0.586,0.119,1.066,0.359,1.44
		c0.24,0.373,0.58,0.673,1.02,0.899s0.961,0.387,1.561,0.48c0.6,0.093,1.26,0.14,1.98,0.14c2.133,0,3.799-0.354,5-1.06
		c1.199-0.707,1.799-1.594,1.799-2.66c0-0.8-0.254-1.414-0.76-1.84c-0.506-0.427-1.439-0.654-2.799-0.681L173.195,30.154z
		 M175.035,20.154c1.439,0,2.506-0.399,3.199-1.199c0.693-0.801,1.041-1.826,1.041-3.08c0-1.28-0.348-2.326-1.041-3.141
		c-0.693-0.813-1.76-1.22-3.199-1.22s-2.5,0.407-3.18,1.22c-0.68,0.814-1.02,1.86-1.02,3.141c0,1.254,0.34,2.279,1.02,3.08
		C172.535,19.755,173.596,20.154,175.035,20.154z"/>
</g>
<g>
</g>
<g>
</g>
<g>
</g>
<g>
</g>
<g>
</g>
<g>
</g>
</svg>
